<svg width="124" height="34" viewBox="0 0 124 34" fill="none" xmlns="http://www.w3.org/2000/svg">
<g clip-path="url(#clip0_22_511)">
<mask id="mask0_22_511" style="mask-type:luminance" maskUnits="userSpaceOnUse" x="0" y="0" width="123" height="34">
<path d="M122.608 0H0.208008V34H122.608V0Z" fill="white"/>
</mask>
<g mask="url(#mask0_22_511)">
<mask id="mask1_22_511" style="mask-type:luminance" maskUnits="userSpaceOnUse" x="0" y="0" width="122" height="33">
<path d="M121.376 0.00341797H0.926758V32.6434H121.376V0.00341797Z" fill="white"/>
</mask>
<g mask="url(#mask1_22_511)">
<path d="M25.5261 3.02848L25.2873 3.26731C24.8097 3.66537 24.1728 3.82458 23.6155 3.58575L21.8641 2.86926C21.3069 2.63043 20.9088 2.07317 20.9088 1.43629V1.03824C20.9088 0.401364 20.3515 -0.0762939 19.7943 -0.0762939H14.938C14.3012 -0.0762939 13.8235 0.401364 13.8235 1.03824V1.43629C13.8235 2.07317 13.4255 2.63043 12.8682 2.86926L11.1168 3.58575C10.5595 3.82458 9.84306 3.66537 9.445 3.26731L9.20617 3.02848C8.72851 2.63043 8.09164 2.63043 7.61398 3.02848L4.03155 6.45171C3.63349 6.84975 3.55389 7.56624 4.03155 8.0439L4.27038 8.28273C4.66842 8.76039 4.82764 9.39726 4.58881 9.95454L3.87232 11.706C3.63349 12.2633 3.07623 12.6613 2.43934 12.6613H2.0413C1.40442 12.6613 0.926758 13.2186 0.926758 13.7758V18.632C0.926758 19.2689 1.40442 19.7466 2.0413 19.7466H2.43934C3.07623 19.7466 3.63349 20.1446 3.87232 20.7019L4.58881 22.4533C4.82764 23.0106 4.66842 23.7271 4.27038 24.1252L4.03155 24.364C3.63349 24.8416 3.63349 25.4785 4.03155 25.9561L7.45476 29.3794C7.85281 29.7774 8.5693 29.857 9.04695 29.3794L9.28578 29.1406C9.76344 28.7425 10.4003 28.5832 10.9576 28.822L12.709 29.5386C13.2662 29.7774 13.6643 30.3346 13.6643 30.9715V31.3696C13.6643 32.0065 14.2215 32.4841 14.7789 32.4841H19.635C20.2719 32.4841 20.7495 32.0065 20.7495 31.3696V30.9715C20.7495 30.3346 21.1476 29.7774 21.7049 29.5386L23.4563 28.822C24.0135 28.5832 24.73 28.7425 25.1281 29.1406L25.3669 29.3794C25.8446 29.7774 26.4815 29.7774 26.9592 29.3794L28.0737 28.2649L21.8641 22.0552C21.068 21.2592 19.2369 19.4281 16.8486 21.8164C16.1322 22.5329 15.6546 23.4883 14.938 24.2047C13.2662 25.8766 11.276 25.0804 10.4799 23.4883C10.0023 22.5329 10.1615 22.4533 9.68383 21.5776C9.12657 20.7019 8.17125 20.065 7.85281 18.9505C7.61398 17.836 8.17125 17.5175 8.17125 16.9603C8.17125 16.4029 7.61398 15.766 7.77321 14.97C7.85281 14.3332 8.33047 13.9351 8.41008 13.6166C8.48968 13.2982 8.48968 13.0594 8.5693 12.5817C8.88774 11.1487 10.2411 10.4322 11.4352 11.2283C12.2313 11.7856 13.9827 13.6963 14.2215 13.4574C14.4604 13.2186 12.5498 11.4672 11.9925 10.6711C11.1964 9.47688 11.9129 8.0439 13.3459 7.80507C13.8235 7.72546 14.142 7.72546 14.3808 7.64586C14.6992 7.48663 15.0177 7.08858 15.7341 7.00897C16.5303 6.84975 17.2467 7.40703 17.7244 7.40703C18.2817 7.40703 18.6798 6.84975 19.7146 7.08858C20.8292 7.32741 21.466 8.36234 22.3418 8.9196C23.2175 9.47688 23.2175 9.31766 24.2524 9.71571C25.8446 10.5118 26.7203 12.5021 24.9689 14.1739C24.2524 14.8903 23.2971 15.2884 22.5806 16.0846C20.1923 18.4729 22.1029 20.3038 22.8195 21.1L29.0289 27.3095L30.1435 26.1949C30.5415 25.7969 30.6212 25.0804 30.1435 24.6028L29.9046 24.364C29.5066 23.8863 29.3475 23.2494 29.5863 22.6921L30.3027 20.9407C30.5415 20.3835 31.0989 19.9854 31.7358 19.9854H32.1338C32.7706 19.9854 33.2483 19.4281 33.2483 18.8709V14.0146C33.2483 13.3778 32.7706 12.9001 32.1338 12.9001H31.7358C31.0989 12.9001 30.5415 12.5021 30.3027 11.9448L29.5863 10.1934C29.3475 9.63609 29.5066 8.91961 29.9046 8.52156L30.1435 8.28273C30.5415 7.80507 30.5415 7.1682 30.1435 6.69054L26.7203 3.26731C26.6406 2.63043 25.9242 2.63043 25.5261 3.02848Z" fill="#393E46"/>
<path d="M40.2539 9.07877C40.2539 5.81477 42.7217 3.58569 45.9062 3.58569C47.8964 3.58569 49.3293 4.54101 50.205 5.65555L48.5333 6.69047C47.976 5.89438 47.0207 5.41672 45.9062 5.41672C43.8363 5.41672 42.3237 6.9293 42.3237 9.07877C42.3237 11.1486 43.8363 12.7408 45.9062 12.7408C47.0207 12.7408 47.8167 12.2632 48.2945 11.8651V10.3525H45.5081V8.60111H50.4438V12.6612C49.3293 13.8554 47.8167 14.5718 45.9857 14.5718C42.7217 14.5718 40.2539 12.3428 40.2539 9.07877Z" fill="#393E46"/>
<path d="M54.7427 3.82458H52.6729V14.333H54.7427V3.82458Z" fill="#393E46"/>
<path d="M64.8535 14.3329L59.44 7.0088V14.3329H57.3701V3.8244H59.5993L64.933 10.9097V3.8244H67.003V14.3329H64.8535Z" fill="#393E46"/>
<path d="M76.1583 14.333L72.576 9.95455L71.7003 10.9894V14.333H69.5508V3.82458H71.7003V8.60118L75.84 3.82458H78.3875L73.9293 8.7604L78.7059 14.333H76.1583Z" fill="#393E46"/>
<path d="M78.7051 9.0789C78.7051 5.8149 81.173 3.58582 84.3574 3.58582C86.3476 3.58582 87.7805 4.54114 88.6563 5.65568L86.9845 6.6906C86.4272 5.89451 85.4719 5.41685 84.3574 5.41685C82.2875 5.41685 80.7749 6.92943 80.7749 9.0789C80.7749 11.1487 82.2875 12.7409 84.3574 12.7409C85.4719 12.7409 86.268 12.2633 86.7457 11.8652V10.3526H83.8797V8.60124H88.8155V12.6613C87.701 13.8555 86.1884 14.5719 84.3574 14.5719C81.2525 14.5719 78.7051 12.3429 78.7051 9.0789Z" fill="#393E46"/>
<path d="M99.5633 9.07877C99.5633 7.00892 98.2099 5.41672 96.14 5.41672C94.0702 5.41672 92.7169 7.00892 92.7169 9.07877C92.7169 11.1486 94.0702 12.7408 96.14 12.7408C98.2099 12.7408 99.5633 11.1486 99.5633 9.07877ZM90.5674 9.07877C90.5674 5.97398 92.7964 3.58569 96.14 3.58569C99.4837 3.58569 101.713 5.89438 101.713 9.07877C101.713 12.2632 99.4837 14.5718 96.14 14.5718C92.7964 14.5718 90.5674 12.1836 90.5674 9.07877Z" fill="#393E46"/>
<path d="M47.7375 25.8764C47.7375 24.8414 47.0211 23.8861 45.5085 23.8861H42.0057V27.8666H45.5085C46.9415 27.8666 47.7375 27.1501 47.7375 25.8764ZM47.4987 21.0998C47.4987 19.9853 46.7823 19.2688 45.4289 19.2688H42.0057V23.0104H45.4289C46.7823 23.0104 47.4987 22.1347 47.4987 21.0998ZM40.9707 28.8219V18.3134H45.5085C47.3395 18.3134 48.6132 19.3484 48.6132 21.0202C48.6132 22.2939 47.7375 23.1697 46.7823 23.4085C47.8968 23.7269 48.7725 24.7618 48.7725 25.9559C48.7725 27.7073 47.5784 28.8219 45.5881 28.8219H40.9707Z" fill="#393E46"/>
<path d="M52.3551 18.3134H51.3203V28.8219H52.3551V18.3134Z" fill="#393E46"/>
<path d="M64.5346 23.5678C64.5346 20.9407 62.8629 19.03 60.3153 19.03C57.6882 19.03 56.096 20.9407 56.096 23.5678C56.096 26.1152 57.7678 28.1054 60.3153 28.1054C62.8629 28.1054 64.5346 26.1949 64.5346 23.5678ZM54.9814 23.5678C54.9814 20.4629 57.0513 18.0746 60.3153 18.0746C63.5793 18.0746 65.6492 20.4629 65.6492 23.5678C65.6492 26.593 63.5793 29.0608 60.3153 29.0608C57.0513 29.0608 54.9814 26.6725 54.9814 23.5678Z" fill="#393E46"/>
<path d="M75.8395 28.822L73.2124 19.9854L70.5852 28.822H69.4707L66.366 18.3135H67.4805L70.1076 27.3095L72.7347 18.3135H73.69L76.3171 27.3095L78.9443 18.3135H80.0589L76.954 28.822H75.8395Z" fill="#393E46"/>
<path d="M90.4076 23.5678C90.4076 20.9407 88.7358 19.03 86.1883 19.03C83.5611 19.03 81.969 20.9407 81.969 23.5678C81.969 26.1152 83.6408 28.1054 86.1883 28.1054C88.7358 28.1054 90.4076 26.1949 90.4076 23.5678ZM80.8545 23.5678C80.8545 20.4629 82.9243 18.0746 86.1883 18.0746C89.4523 18.0746 91.5222 20.4629 91.5222 23.5678C91.5222 26.593 89.4523 29.0608 86.1883 29.0608C82.9243 29.0608 80.8545 26.6725 80.8545 23.5678Z" fill="#393E46"/>
<path d="M100.518 21.4183C100.518 20.1446 99.6429 19.2689 98.2098 19.2689H95.1846V23.6474H98.2098C99.7224 23.6474 100.518 22.692 100.518 21.4183ZM100.439 28.822L97.4137 24.5231H95.1051V28.822H94.0701V18.3135H98.2098C100.359 18.3135 101.553 19.6668 101.553 21.4183C101.553 23.1698 100.359 24.4434 98.5282 24.5231L101.713 28.822H100.439Z" fill="#393E46"/>
<path d="M110.947 28.8219L106.489 23.9657L105.295 25.1599V28.8219H104.26V18.3134H105.295V23.9657L110.47 18.3134H111.823L107.126 23.3288L112.301 28.8219H110.947Z" fill="#393E46"/>
<path d="M113.415 27.389L114.052 26.6724C114.689 27.4686 115.963 28.185 117.475 28.185C119.545 28.185 120.341 27.1502 120.341 26.1152C120.341 23.0901 113.734 24.7619 113.734 21.0203C113.734 19.2687 115.326 18.1542 117.396 18.1542C119.068 18.1542 120.262 18.7115 121.137 19.6668L120.5 20.3834C119.704 19.428 118.59 19.0299 117.316 19.0299C115.883 19.0299 114.769 19.8261 114.769 20.9406C114.769 23.5677 121.376 22.0551 121.376 26.0357C121.376 27.7074 120.182 29.0607 117.396 29.0607C115.644 29.0607 114.211 28.3443 113.415 27.389Z" fill="#393E46"/>
</g>
</g>
</g>
<defs>
<clipPath id="clip0_22_511">
<rect width="123" height="34" fill="white" transform="translate(0.139648)"/>
</clipPath>
</defs>
</svg>
