<svg width="84" height="40" viewBox="0 0 84 40" fill="none" xmlns="http://www.w3.org/2000/svg">
<mask id="mask0_22_494" style="mask-type:luminance" maskUnits="userSpaceOnUse" x="0" y="0" width="84" height="40">
<path d="M83.0611 0H0.480469V40H83.0611V0Z" fill="white"/>
</mask>
<g mask="url(#mask0_22_494)">
<mask id="mask1_22_494" style="mask-type:luminance" maskUnits="userSpaceOnUse" x="1" y="0" width="82" height="39">
<path d="M82.7637 0.00311279H1.02271V38.7128H82.7637V0.00311279Z" fill="white"/>
</mask>
<g mask="url(#mask1_22_494)">
<path d="M17.7846 0.00311279L1.02271 9.68053V29.0353L17.7846 38.7128L34.5465 29.0353V9.68053L17.7846 0.00311279ZM7.36333 9.11377L9.74372 10.4386L6.23689 12.5923V28.837L3.79983 27.4343L3.8565 11.2604L7.36333 9.11377ZM8.92899 14.1155L12.4359 11.9334L14.8375 13.2653L11.3307 15.4615V31.7701L8.92899 30.3814V14.1155ZM10.2255 7.58352L12.7122 6.14537L26.6403 14.2147V18.4157L24.2387 19.8043V15.589L10.2255 7.58352ZM14.0512 16.9988L17.7846 14.9586L21.5181 17.1689V21.3699L17.7846 23.5236L14.0512 21.377V16.9988ZM14.0512 30.5939L16.637 32.0676L17.7421 32.691L17.7846 32.7122L31.7624 24.6501V27.4272L17.7917 35.4965L17.7846 35.5036L14.0512 33.3498V30.5939ZM17.7846 26.74L31.7624 18.6708V21.4408L17.7846 29.5172L14.0512 27.3917V24.5863L17.7846 26.74ZM31.7624 11.2746V15.4544L29.3607 16.843V12.656L15.4397 4.57261L17.7846 3.21947L31.7624 11.2746Z" fill="#393E46"/>
<path d="M39.2079 25.1956C39.1582 25.1956 39.052 25.1602 39.052 25.0398L39.0661 13.5913C39.0661 13.4567 39.2149 13.4567 39.222 13.4567L41.8291 13.4636C41.8504 13.4636 41.8929 13.4707 41.9212 13.4991C41.9496 13.5204 41.9638 13.5558 41.9638 13.5983L41.9496 22.7869L46.4057 22.794C46.4482 22.794 46.4836 22.8082 46.5049 22.8365C46.5332 22.8648 46.5403 22.9074 46.5403 22.9285V25.054C46.5403 25.0611 46.5403 25.2098 46.4057 25.2098L39.2079 25.1956Z" fill="#393E46"/>
<path d="M54.8228 25.2167C54.7803 25.2167 54.7166 25.1529 54.6811 25.0254L54.2703 23.6298L50.48 23.6227L50.0691 25.0112C50.0336 25.1387 49.9699 25.2097 49.9274 25.2097L47.3204 25.2026C47.3204 25.2026 47.2069 25.1955 47.1858 25.0963L50.6642 13.6902C50.6926 13.5911 50.7493 13.4777 50.8059 13.4777L54.0081 13.4848C54.0718 13.4848 54.1215 13.5982 54.1498 13.6973L57.5574 25.1176C57.5433 25.2238 57.4228 25.2238 57.4228 25.2238L54.8228 25.2167ZM51.2451 21.0227H53.5122L52.4071 17.1617L51.2451 21.0227Z" fill="#393E46"/>
<path d="M58.549 25.2241C58.5419 25.2241 58.3931 25.2241 58.3931 25.0894L58.4073 13.6409C58.4073 13.5276 58.5135 13.485 58.5632 13.485L61.1702 13.4921C61.2127 13.4921 61.3048 13.5347 61.3048 13.648L61.2906 25.0965C61.2906 25.2241 61.1561 25.2311 61.1561 25.2311L58.549 25.2241Z" fill="#393E46"/>
<path d="M68.8562 25.238C68.8138 25.238 68.7358 25.1742 68.6366 25.0041L66.4121 20.7534L65.3991 22.2412L65.392 25.1034C65.392 25.2309 65.2574 25.238 65.2574 25.238L62.6503 25.2309C62.6432 25.2309 62.4944 25.2309 62.4944 25.0963L62.5086 13.6478C62.5086 13.5343 62.6148 13.4919 62.6645 13.4919L65.2716 13.499C65.2927 13.499 65.3282 13.5132 65.3565 13.5414C65.3849 13.5698 65.4062 13.6123 65.4062 13.6549L65.3991 17.4238L67.8574 13.7823C67.9282 13.6831 68.0841 13.5132 68.2966 13.5132L71.1375 13.5203C71.1729 13.5203 71.2367 13.5485 71.265 13.6194L68.1054 18.2456L71.7751 25.16C71.7468 25.2521 71.6334 25.2521 71.6263 25.2521L68.8562 25.238Z" fill="#393E46"/>
<path d="M80.0218 25.2524C79.9793 25.2524 79.9156 25.1886 79.8801 25.0612L79.4693 23.6655L75.6789 23.6584L75.2681 25.047C75.2326 25.1744 75.1689 25.2453 75.1264 25.2453L72.5193 25.2383C72.5193 25.2383 72.4059 25.2312 72.3848 25.132L75.8632 13.7259C75.8916 13.6267 75.9482 13.5134 76.0049 13.5134L79.2071 13.5205C79.2708 13.5205 79.3205 13.6338 79.3487 13.733L82.7564 25.1533C82.7423 25.2595 82.6218 25.2595 82.6218 25.2595L80.0218 25.2524ZM76.4441 21.0655H78.7112L77.606 17.2044L76.4441 21.0655Z" fill="#393E46"/>
</g>
</g>
</svg>
