<svg width="125" height="28" viewBox="0 0 125 28" fill="none" xmlns="http://www.w3.org/2000/svg">
<g clip-path="url(#clip0_22_537)">
<path d="M114.322 6.73282V6.76483C113.103 5.8951 111.669 5.37866 110.177 5.27209C108.684 5.16553 107.192 5.47296 105.863 6.16069C104.533 6.84841 103.418 7.88993 102.639 9.17108C101.86 10.4522 101.449 11.9235 101.449 13.4237C101.449 14.924 101.86 16.3953 102.639 17.6764C103.418 18.9575 104.533 19.9991 105.863 20.6868C107.192 21.3746 108.684 21.682 110.177 21.5754C111.669 21.4689 113.103 20.9523 114.322 20.0828V21.596H117.75V4.23282L114.322 6.73282ZM109.601 18.1648C108.673 18.1662 107.765 17.8941 106.99 17.3823C106.215 16.8704 105.607 16.1413 105.242 15.2859C104.876 14.4303 104.77 13.486 104.936 12.5704C105.101 11.6548 105.532 10.8082 106.173 10.1359C106.815 9.46359 107.64 8.99525 108.545 8.78906C109.449 8.58295 110.395 8.64805 111.263 8.97633C112.132 9.3047 112.885 9.88169 113.428 10.6357C113.972 11.3897 114.283 12.2874 114.322 13.2171V13.61C114.274 14.8338 113.756 15.9915 112.876 16.8406C111.996 17.6896 110.822 18.1642 109.601 18.1648ZM100.5 21.5932V16.6514L93.7083 21.5932H100.5ZM122.918 0.487183L119.48 2.98428V6.43887L122.916 3.93306L122.918 0.487183ZM119.48 8.58963L119.473 21.5932H122.901L122.916 6.08382L119.48 8.58963Z" fill="#393E46"/>
<path d="M45.4359 5.24854C43.8243 5.24854 42.249 5.72769 40.909 6.62541C39.5689 7.52314 38.5244 8.79916 37.9075 10.2921C37.2905 11.785 37.1288 13.4279 37.4428 15.0131C37.7567 16.5982 38.5323 18.0543 39.6714 19.1975C40.8105 20.3407 42.262 21.1194 43.8425 21.4354C45.4228 21.7514 47.0612 21.5905 48.5505 20.9728C50.0396 20.3551 51.3127 19.3086 52.2088 17.9654C53.105 16.6222 53.584 15.0427 53.5852 13.4267C53.5859 12.3529 53.3756 11.2896 52.9665 10.2975C52.5573 9.30525 51.9571 8.4037 51.2003 7.6442C50.4435 6.88472 49.5449 6.28223 48.5557 5.87117C47.5667 5.46011 46.5065 5.24854 45.4359 5.24854ZM45.4359 18.1648C44.4992 18.1653 43.5834 17.8872 42.8044 17.3656C42.0254 16.844 41.4183 16.1023 41.0599 15.2344C40.7014 14.3666 40.6078 13.4116 40.7908 12.4905C40.9738 11.5692 41.4253 10.7231 42.088 10.0593C42.7508 9.39555 43.595 8.9439 44.5137 8.76148C45.4326 8.57906 46.3848 8.6742 47.2498 9.03468C48.1146 9.39523 48.8534 10.005 49.3726 10.7868C49.8918 11.5686 50.1681 12.4874 50.1665 13.4267C50.1641 14.6836 49.6648 15.8882 48.7779 16.7764C47.8912 17.6647 46.6893 18.1639 45.4359 18.1648ZM27.4134 5.24854C25.9959 5.24964 24.6031 5.62156 23.3726 6.32756C22.1422 7.03356 21.1168 8.04921 20.3974 9.27425C19.6782 10.4992 19.29 11.8912 19.2711 13.3127C19.2524 14.7341 19.6037 16.1359 20.2905 17.3796C20.9773 18.6234 21.9755 19.6658 23.1869 20.4042C24.3982 21.1426 25.7807 21.5514 27.1978 21.5902C28.6149 21.6289 30.0175 21.2962 31.2671 20.625C32.5167 19.9539 33.5703 18.9675 34.3234 17.7632L31.3546 16.046C30.8756 16.77 30.2074 17.348 29.4231 17.7171C28.6387 18.0861 27.7682 18.2319 26.9068 18.1385C26.0454 18.0451 25.2262 17.7162 24.5386 17.1875C23.851 16.6588 23.3216 15.9508 23.0079 15.1409H35.3857C35.6426 13.9487 35.6301 12.714 35.349 11.5273C35.0681 10.3407 34.5257 9.2322 33.7616 8.2832C32.9976 7.3342 32.0313 6.56881 30.934 6.04319C29.8364 5.51755 28.6354 5.24505 27.4193 5.24564L27.4134 5.24854ZM27.4134 8.67404C28.3676 8.67476 29.299 8.96481 30.0858 9.50596C30.8725 10.0472 31.4776 10.8143 31.8218 11.7066H23.0079C23.0545 11.5805 23.1066 11.4583 23.1647 11.34C23.5528 10.5411 24.157 9.8677 24.9081 9.39634C25.6593 8.92498 26.5274 8.67476 27.4134 8.67404ZM9.39105 5.24854C7.67608 5.24594 6.00454 5.78907 4.61697 6.79976L3.30811 5.8015C3.18627 5.71117 3.03883 5.66222 2.88729 5.66181H1.18953L1.17212 27.5128H4.59957V20.0419C5.64045 20.7971 6.84463 21.2949 8.11385 21.4945C9.3831 21.694 10.6814 21.5898 11.9028 21.1905C13.1242 20.7911 14.2342 20.1078 15.1421 19.1962C16.05 18.2846 16.7302 17.1707 17.1271 15.9454C17.5239 14.7201 17.6264 13.418 17.4258 12.1454C17.2253 10.8728 16.7276 9.66581 15.9733 8.62285C15.2191 7.57991 14.2297 6.73057 13.0857 6.14414C11.9417 5.55773 10.6758 5.25084 9.39105 5.24854ZM9.39105 18.1648C8.45437 18.1653 7.53857 17.8872 6.7596 17.3656C5.98061 16.844 5.37347 16.1023 5.01501 15.2344C4.65658 14.3666 4.56294 13.4116 4.74594 12.4905C4.92897 11.5692 5.38042 10.7231 6.04317 10.0593C6.70589 9.39555 7.55012 8.9439 8.46899 8.76148C9.38779 8.57906 10.34 8.6742 11.2049 9.03468C12.0698 9.39523 12.8087 10.005 13.3279 10.7868C13.847 11.5686 14.1232 12.4874 14.1216 13.4267C14.12 14.6838 13.621 15.8889 12.734 16.7774C11.847 17.6657 10.6446 18.1648 9.39105 18.1648ZM63.4903 5.24854C61.7851 5.24539 60.1224 5.78215 58.7393 6.7823L57.4421 5.8015C57.3205 5.71079 57.1729 5.66181 57.0212 5.66181H55.3235L55.3061 27.5128H58.7365V20.0681C59.7799 20.8165 60.985 21.3073 62.2532 21.5005C63.5216 21.6936 64.8175 21.5839 66.0356 21.18C67.2536 20.776 68.3593 20.0894 69.2628 19.1761C70.1663 18.2626 70.8419 17.1482 71.2347 15.9235C71.6277 14.6987 71.7266 13.3983 71.5236 12.1279C71.3206 10.8576 70.8215 9.65325 70.0668 8.61292C69.312 7.5726 68.323 6.72566 67.1801 6.14103C66.0374 5.55641 64.773 5.25062 63.4903 5.24854ZM63.4903 18.1648C62.5532 18.167 61.6365 17.8903 60.8564 17.3698C60.0763 16.8492 59.4677 16.1082 59.1081 15.2405C58.7481 14.3728 58.6532 13.4176 58.8353 12.4958C59.0174 11.5741 59.468 10.7271 60.1305 10.0624C60.7929 9.39777 61.6372 8.94526 62.5562 8.76212C63.4752 8.57906 64.4279 8.67357 65.2933 9.03388C66.1587 9.39412 66.8982 10.0039 67.4176 10.7859C67.9373 11.5679 68.2137 12.487 68.212 13.4267C68.2104 14.6823 67.7125 15.8861 66.8274 16.7742C65.9424 17.6625 64.7423 18.1624 63.4903 18.1648ZM94.6479 15.1379C95.0811 13.1501 94.7616 11.0716 93.7513 9.30708C92.741 7.54256 91.1115 6.21826 89.1815 5.59201C87.2508 4.96575 85.1571 5.0824 83.3074 5.9192C81.4578 6.756 79.9849 8.2531 79.1755 10.119C78.366 11.9849 78.2781 14.0861 78.9287 16.0136C79.579 17.941 80.9212 19.5566 82.6946 20.5461C84.468 21.5354 86.5442 21.8277 88.521 21.366C90.4971 20.9043 92.2307 19.7216 93.3856 18.0483L90.6195 16.046C90.141 16.7701 89.4725 17.3482 88.6887 17.7171C87.9042 18.086 87.0338 18.2316 86.1722 18.1379C85.3105 18.0441 84.4918 17.7147 83.805 17.1856C83.1175 16.6566 82.5889 15.9481 82.2757 15.1379H91.0924H94.6479ZM86.6817 8.67404C87.6355 8.67476 88.5671 8.96481 89.3532 9.50596C90.1402 10.0472 90.7459 10.8143 91.09 11.7066H82.2757C82.3226 11.5805 82.3743 11.4583 82.4323 11.34C82.821 10.5411 83.4251 9.8677 84.1762 9.39634C84.9274 8.92498 85.7954 8.67476 86.6817 8.67404ZM73.372 0.487183H76.8023V21.5932H73.372V0.487183Z" fill="#393E46"/>
</g>
<defs>
<clipPath id="clip0_22_537">
<rect width="124" height="27.0256" fill="white" transform="translate(0.300049 0.487183)"/>
</clipPath>
</defs>
</svg>
