<svg width="111" height="22" viewBox="0 0 111 22" fill="none" xmlns="http://www.w3.org/2000/svg">
<g clip-path="url(#clip0_22_486)">
<mask id="mask0_22_486" style="mask-type:luminance" maskUnits="userSpaceOnUse" x="1" y="0" width="109" height="22">
<path d="M109.217 0.869629H1.125V21.137H109.217V0.869629Z" fill="white"/>
</mask>
<g mask="url(#mask0_22_486)">
<path d="M14.1568 13.8421L17.2681 19.5368H11.4951L8.86801 14.6701H6.37918V19.5368H1.125V2.286H10.7346C14.7098 2.286 17.2335 4.49228 17.2335 8.45995C17.2335 11.013 16.0583 12.842 14.1568 13.8421ZM6.37918 6.76939V10.185H10.1124C11.2186 10.185 11.9099 9.5295 11.9099 8.45995C11.9099 7.39041 11.2186 6.76939 10.1124 6.76939H6.37918ZM33.964 20.8118L18.2361 16.5681L22.4532 0.869629L30.3172 2.99147L38.1812 5.11331L33.964 20.8118ZM30.9913 9.25348L26.6012 8.04596L25.426 12.4276L29.816 13.6355L30.9913 9.25348ZM56.191 14.6701C56.191 17.9824 54.0825 19.5368 50.7985 19.5368H40.4977V2.286H50.453C53.7366 2.286 55.8451 3.97657 55.8451 6.94367C55.8451 8.80674 55.154 10.0492 53.8404 10.9117C55.3269 11.5651 56.191 12.8765 56.191 14.6701ZM45.6135 6.42619V8.97924H49.0337C49.9669 8.97924 50.5202 8.56525 50.5202 7.66821C50.5202 6.84016 49.9669 6.42619 49.0337 6.42619H45.6135ZM45.6135 15.3965H49.4505C50.3493 15.3965 50.8695 14.9135 50.8695 14.0851C50.8695 13.1884 50.351 12.7744 49.4505 12.7744H45.6135V15.3965ZM58.7836 2.286H64.0366V14.4291H71.5726V19.5368H58.783L58.7836 2.286ZM90.8964 10.9117C90.8964 12.6859 90.3699 14.4202 89.3818 15.8954C88.3943 17.3706 86.9904 18.5202 85.3487 19.1992C83.7063 19.8782 81.8992 20.0559 80.1558 19.7097C78.4123 19.3637 76.8113 18.5093 75.5542 17.2547C74.2972 16.0002 73.4413 14.4018 73.0942 12.6618C72.7476 10.9217 72.9257 9.11805 73.606 7.47892C74.2863 5.83979 75.4379 4.43881 76.9162 3.45313C78.3939 2.46745 80.1316 1.94135 81.9094 1.94135C83.0895 1.93901 84.2595 2.16937 85.3512 2.61924C86.4423 3.06909 87.4336 3.72959 88.2691 4.56285C89.1039 5.39611 89.7658 6.3857 90.2166 7.47491C90.6681 8.56404 90.8989 9.73137 90.8964 10.9099V10.9117ZM85.6424 10.9117C85.6424 8.77228 83.9485 7.08171 81.9094 7.08171C79.8696 7.08171 78.1758 8.77228 78.1758 10.9117C78.1758 13.0512 79.8696 14.7413 81.9094 14.7413C83.9485 14.7413 85.6424 13.0487 85.6424 10.9099V10.9117ZM103.548 10.6353L109.217 19.5368H102.959L99.8496 14.4632L96.6348 19.5368H90.2745L96.1852 10.842L90.7584 2.286H97.015L99.8839 6.94367L102.65 2.286H108.871L103.548 10.6353Z" fill="#393E46"/>
</g>
</g>
<defs>
<clipPath id="clip0_22_486">
<rect width="110" height="21.6185" fill="white" transform="translate(0.330078 0.190735)"/>
</clipPath>
</defs>
</svg>
