<svg width="135" height="34" viewBox="0 0 135 34" fill="none" xmlns="http://www.w3.org/2000/svg">
<mask id="mask0_22_542" style="mask-type:luminance" maskUnits="userSpaceOnUse" x="1" y="0" width="134" height="34">
<path d="M134.085 0.00238037H1.97046V33.0309H134.085V0.00238037Z" fill="white"/>
</mask>
<g mask="url(#mask0_22_542)">
<path d="M29.6995 0.00238037H7.73351C4.68839 0.00238037 2.22046 2.47033 2.22046 5.51544V27.4814C2.22046 30.5266 4.68839 32.9945 7.73351 32.9945H29.6995C32.7446 32.9945 35.2126 30.5266 35.2126 27.4814V5.51544C35.2126 2.47033 32.7446 0.00238037 29.6995 0.00238037ZM29.2152 25.2556C29.2152 26.2176 28.4357 26.9971 27.4738 26.9971H9.9593C8.99734 26.9971 8.21781 26.2176 8.21781 25.2556V7.74123C8.21781 6.77926 8.99734 5.99974 9.9593 5.99974H27.4738C28.4357 5.99974 29.2152 6.77926 29.2152 7.74123V25.2556ZM15.217 20.9765C14.663 20.9765 14.2185 20.5287 14.2185 19.9747V12.9823C14.2185 12.4283 14.663 11.9771 15.217 11.9771H22.2194C22.7701 11.9771 23.2178 12.425 23.2178 12.9823V19.9714C23.2178 20.5254 22.7701 20.9732 22.2194 20.9732H15.217V20.9765ZM43.9598 20.4989H47.5622C47.7414 22.5389 49.1246 24.1311 51.9143 24.1311C54.4055 24.1311 55.938 22.9005 55.938 21.0396C55.938 19.2981 54.7372 18.5185 52.5744 18.0077L49.7814 17.4073C46.7495 16.7472 44.4674 14.7967 44.4674 11.6123C44.4674 8.09947 47.5887 5.69788 51.6423 5.69788C55.9347 5.69788 58.6978 7.95019 58.9366 11.2806H55.4536C55.039 9.72157 53.7454 8.79275 51.6456 8.79275C49.4231 8.79275 47.894 9.99358 47.894 11.5261C47.894 13.0585 49.2141 13.9873 51.4963 14.4982L54.2595 15.0986C57.2914 15.7587 59.3612 17.5897 59.3612 20.8007C59.3612 24.8841 56.2995 27.3155 51.9176 27.3155C46.9917 27.3122 44.2617 24.6419 43.9598 20.4989ZM72.2483 32.9945V27.0203L72.4837 24.3998H72.2483C71.4223 26.2839 69.6874 27.3155 67.3323 27.3155C63.5342 27.3155 60.708 24.224 60.708 19.4838C60.708 14.7437 63.5342 11.6521 67.3323 11.6521C69.6576 11.6521 71.3062 12.7401 72.2483 14.4484H72.4837V11.944H75.6051V32.9945H72.2483ZM72.3644 19.4805C72.3644 16.4486 70.5101 14.6806 68.2411 14.6806C65.9723 14.6806 64.118 16.4486 64.118 19.4805C64.118 22.5124 65.9723 24.2804 68.2411 24.2804C70.5101 24.2804 72.3644 22.5157 72.3644 19.4805ZM78.0963 21.0429V11.944H81.4532V20.7477C81.4532 23.1326 82.601 24.2804 84.515 24.2804C86.8701 24.2804 88.4026 22.6019 88.4026 19.9814V11.944H91.7595V27.017H88.6381V23.8956H88.4026C87.6662 25.8992 86.0474 27.3122 83.5464 27.3122C79.9506 27.3122 78.0963 25.0168 78.0963 21.0429ZM93.8029 22.8076C93.8029 19.9814 95.7766 18.3328 99.2799 18.1271L103.428 17.8617V16.6842C103.428 15.271 102.397 14.4186 100.573 14.4186C98.8943 14.4186 97.8929 15.271 97.6275 16.4785H94.2705C94.6255 13.4168 97.1565 11.6488 100.57 11.6488C104.427 11.6488 106.783 13.2974 106.783 16.4785V27.017H103.661V24.2206H103.425C102.719 26.0749 101.246 27.3122 98.4203 27.3122C95.7168 27.3122 93.8029 25.4878 93.8029 22.8076ZM103.432 20.9533V20.1572L100.045 20.3927C98.2213 20.5088 97.3953 21.1888 97.3953 22.5422C97.3953 23.6899 98.3372 24.5158 99.6607 24.5158C102.049 24.5158 103.432 22.9867 103.432 20.9533ZM109.287 27.0203V11.944H112.408V14.8299H112.643C113.084 12.8562 114.587 11.944 116.823 11.944H118.355V14.9758H116.442C114.263 14.9758 112.643 16.389 112.643 19.0691V27.017H109.287V27.0203ZM133.714 20.1008H122.26C122.435 22.8673 124.379 24.4297 126.529 24.4297C128.353 24.4297 129.502 23.6932 130.151 22.4559H133.479C132.566 25.5177 129.886 27.3122 126.499 27.3122C122.055 27.3122 118.933 23.9851 118.933 19.4805C118.933 14.9758 122.141 11.6488 126.529 11.6488C130.944 11.6488 133.83 14.6806 133.83 18.4489C133.833 19.1886 133.774 19.5701 133.714 20.1008ZM130.506 17.7755C130.39 15.6857 128.653 14.2726 126.533 14.2726C124.529 14.2726 122.854 15.5397 122.439 17.7755H130.506Z" fill="#393E46"/>
</g>
</svg>
